<?xml version="1.0" standalone="no"?>
<!DOCTYPE svg PUBLIC "-//W3C//DTD SVG 20010904//EN"
 "http://www.w3.org/TR/2001/REC-SVG-20010904/DTD/svg10.dtd">
<svg version="1.0" xmlns="http://www.w3.org/2000/svg"
 width="512pt" height="512pt" viewBox="0 0 512 512"
 preserveAspectRatio="xMidYMid meet">
<metadata>
Created by potrace 1.11, written by Peter Selinger 2001-2013
</metadata>
<g transform="translate(0,512) scale(0.100000,-0.100000)"
fill="#000000" stroke="none">
<path d="M2711 5098 c-4 -12 -4 -42 1 -67 23 -122 32 -516 15 -646 -12 -92
-17 -128 -23 -155 -3 -14 -8 -36 -10 -50 -20 -106 -77 -270 -135 -384 -164
-325 -435 -563 -808 -711 l-94 -37 -18 23 c-87 113 -180 401 -204 634 -12 118
-17 140 -31 155 -12 12 -20 11 -59 -8 -26 -12 -52 -27 -58 -32 -7 -5 -57 -43
-112 -84 -412 -305 -728 -807 -822 -1306 -26 -140 -24 -447 3 -630 15 -97 81
-361 103 -415 5 -11 15 -36 22 -55 23 -66 130 -281 171 -348 88 -141 172 -246
293 -367 123 -123 272 -238 406 -313 19 -10 57 -31 84 -47 113 -63 334 -143
507 -185 143 -34 163 -37 368 -59 78 -9 479 -7 516 2 12 3 45 8 75 12 30 4 86
13 124 22 39 8 81 17 95 19 167 31 464 155 645 269 210 132 425 323 555 494
14 18 34 45 45 59 186 242 349 632 391 937 3 22 7 51 9 65 17 102 21 294 10
478 -8 135 -10 150 -51 397 -10 61 -74 293 -104 379 -57 161 -150 365 -225
494 -57 96 -74 125 -109 177 -22 33 -43 62 -48 63 -4 2 -8 8 -8 14 0 11 -67
100 -165 218 -257 311 -596 599 -960 817 -149 89 -348 193 -371 193 -8 0 -18
-10 -23 -22z"/>
</g>
</svg>
